<?xml version="1.0" encoding="utf-8"?>
<!-- Generator: Adobe Illustrator 26.0.0, SVG Export Plug-In . SVG Version: 6.00 Build 0)  -->
<svg version="1.1" id="Layer_1" xmlns="http://www.w3.org/2000/svg" xmlns:xlink="http://www.w3.org/1999/xlink" x="0px" y="0px"
	 viewBox="0 0 851.03 852" style="enable-background:new 0 0 851.03 852;" xml:space="preserve">
<style type="text/css">
	.st0{fill:#27AAE1;}
	.st1{fill:#27AAE1;stroke:#000000;stroke-miterlimit:10;}
	.st2{fill:#2D3242;stroke:#000000;stroke-miterlimit:10;}
	.st3{fill:#F1F2F2;stroke:#000000;stroke-miterlimit:10;}
	.st4{stroke:#000000;stroke-miterlimit:10;}
	.st5{fill:none;stroke:#28A8E0;stroke-width:3;stroke-miterlimit:10;}
	.st6{fill:#28A8E0;}
	.st7{fill:#E9E8E7;}
	.st8{fill:none;stroke:#000000;stroke-width:3;stroke-miterlimit:10;}
	.st9{fill:none;stroke:#F1F2F2;stroke-width:3;stroke-miterlimit:10;}
	.st10{fill:#F1F2F2;}
	.st11{fill:#2E3242;}
	.st12{fill:#E6E6E5;}
</style>
<line class="st5" x1="148.38" y1="540.79" x2="712.27" y2="540.79"/>
<g>
	<g>
		<g>
			<path class="st6" d="M152.18,658.63h4.31v30.71h-4.31V658.63z M155.1,685.24h6.95c2.27,0,4.02-0.59,5.27-1.76
				s1.87-2.83,1.87-4.97v-9.04c0-2.14-0.62-3.8-1.87-4.97s-3-1.76-5.27-1.76h-6.95v-4.1h6.82c2.46,0,4.57,0.43,6.32,1.29
				c1.75,0.86,3.08,2.11,3.99,3.76s1.37,3.63,1.37,5.96v8.7c0,2.32-0.46,4.31-1.37,5.96s-2.25,2.9-4,3.76
				c-1.75,0.86-3.86,1.29-6.33,1.29h-6.8V685.24z"/>
			<path class="st6" d="M187.73,689.34h-4.31v-30.71h4.31V689.34z"/>
			<path class="st6" d="M203.21,689.23c-1.32-0.28-2.56-0.7-3.71-1.27c-1.15-0.56-2.22-1.27-3.22-2.11l2.68-3.29
				c1.17,1.01,2.46,1.77,3.87,2.28s2.94,0.76,4.58,0.76c2.22,0,3.95-0.41,5.17-1.24c1.22-0.82,1.84-1.99,1.84-3.5v-0.02
				c0-1.07-0.28-1.92-0.83-2.55c-0.56-0.63-1.27-1.09-2.15-1.39s-2.02-0.58-3.41-0.83c-0.04-0.01-0.09-0.02-0.14-0.02
				c-0.05,0-0.1-0.01-0.14-0.02l-0.32-0.06c-2.06-0.35-3.73-0.75-5.02-1.19c-1.29-0.44-2.39-1.25-3.3-2.43
				c-0.92-1.17-1.37-2.85-1.37-5.02v-0.02c0-1.9,0.43-3.52,1.28-4.87s2.09-2.37,3.73-3.07c1.63-0.7,3.6-1.06,5.89-1.06
				c1.1,0,2.18,0.12,3.24,0.36c1.06,0.24,2.11,0.59,3.15,1.07s2.05,1.07,3.05,1.78l-2.45,3.42c-1.17-0.86-2.33-1.5-3.5-1.93
				c-1.16-0.43-2.33-0.64-3.5-0.64c-2.1,0-3.73,0.42-4.89,1.26c-1.16,0.84-1.74,2.02-1.74,3.56v0.02c0,1.06,0.3,1.89,0.9,2.49
				c0.6,0.61,1.34,1.05,2.24,1.34c0.89,0.29,2.14,0.59,3.73,0.9c0.06,0.01,0.11,0.02,0.16,0.03c0.05,0.01,0.1,0.02,0.16,0.03
				c0.07,0.01,0.15,0.03,0.23,0.04c0.08,0.01,0.16,0.03,0.23,0.04c1.86,0.38,3.41,0.83,4.66,1.35c1.25,0.52,2.29,1.36,3.13,2.52
				c0.84,1.16,1.26,2.75,1.26,4.76v0.04c0,1.87-0.44,3.47-1.33,4.8c-0.89,1.33-2.17,2.34-3.85,3.04c-1.68,0.7-3.71,1.04-6.09,1.04
				C205.94,689.65,204.54,689.51,203.21,689.23z"/>
			<path class="st6" d="M227.68,658.63h4.31v30.71h-4.31V658.63z M229.77,658.63h17.64v4.1h-17.64V658.63z M229.77,672.04h15.31v4.1
				h-15.31V672.04z M229.77,685.24h17.64v4.1h-17.64V685.24z"/>
			<path class="st6" d="M256.38,658.63h3.91l15.02,23.74l-0.51,0.55v-24.29h4.27v30.69h-3.95l-14.97-23.38l0.51-0.55v23.93h-4.27
				V658.63z M270.66,656.33c-0.39-0.07-0.76-0.17-1.1-0.29c-0.34-0.12-0.69-0.26-1.06-0.43l-0.06-0.02
				c-0.21-0.11-0.42-0.22-0.62-0.33s-0.4-0.21-0.6-0.33c-0.52-0.31-0.95-0.54-1.3-0.69c-0.35-0.15-0.69-0.22-1.02-0.22
				c-0.56,0-0.99,0.16-1.27,0.47c-0.28,0.32-0.42,0.79-0.42,1.43v0.44h-3.34v-0.53c0-1.83,0.36-3.2,1.08-4.11
				c0.72-0.91,1.8-1.36,3.23-1.36c0.8,0,1.5,0.1,2.09,0.3c0.59,0.2,1.26,0.48,2.01,0.84l0.06,0.04c0.13,0.07,0.25,0.14,0.37,0.2
				c0.12,0.06,0.24,0.13,0.35,0.2c0.49,0.28,0.89,0.49,1.2,0.62s0.62,0.2,0.93,0.2c0.56,0,0.99-0.17,1.27-0.51
				c0.28-0.34,0.42-0.85,0.42-1.54v-0.42h3.34v0.51c0,1.87-0.36,3.28-1.07,4.21s-1.79,1.4-3.22,1.4
				C271.48,656.43,271.05,656.4,270.66,656.33z"/>
			<path class="st6" d="M294.02,688.25c-1.63-0.94-2.9-2.26-3.79-3.97c-0.89-1.71-1.34-3.69-1.34-5.95v-8.7
				c0-2.25,0.45-4.23,1.34-5.95c0.89-1.71,2.16-3.03,3.79-3.97c1.63-0.94,3.52-1.4,5.66-1.4c2.14,0,4.03,0.47,5.66,1.4
				c1.63,0.94,2.9,2.26,3.79,3.97c0.89,1.71,1.34,3.69,1.34,5.95v8.7c0,2.25-0.45,4.23-1.34,5.95c-0.89,1.71-2.16,3.03-3.79,3.97
				c-1.63,0.94-3.52,1.4-5.66,1.4C297.54,689.65,295.66,689.19,294.02,688.25z M303.03,684.55c0.96-0.57,1.71-1.38,2.24-2.43
				c0.53-1.05,0.79-2.26,0.79-3.64v-9c0-1.38-0.26-2.59-0.79-3.64c-0.53-1.05-1.27-1.86-2.24-2.43c-0.96-0.57-2.08-0.86-3.35-0.86
				c-1.27,0-2.38,0.29-3.35,0.86c-0.96,0.57-1.71,1.38-2.24,2.43c-0.53,1.05-0.79,2.26-0.79,3.64v9c0,1.38,0.26,2.59,0.79,3.64
				c0.53,1.05,1.27,1.86,2.24,2.43c0.96,0.57,2.08,0.86,3.35,0.86C300.95,685.41,302.07,685.12,303.03,684.55z"/>
			<path class="st6" d="M344,676.85v12.48h-4.31v-12.48l-9.36-18.23h4.79l6.72,13.86l6.72-13.86h4.79L344,676.85z"/>
			<path class="st6" d="M378.3,688.24c-1.61-0.94-2.86-2.28-3.75-4.01c-0.89-1.73-1.33-3.74-1.33-6.02v-8.43
				c0-2.28,0.44-4.29,1.33-6.02c0.89-1.73,2.14-3.07,3.75-4.02c1.61-0.95,3.48-1.43,5.61-1.43c1.76,0,3.38,0.38,4.86,1.13
				c1.48,0.75,2.71,1.82,3.71,3.2c0.99,1.38,1.66,2.98,2.02,4.79h-4.41c-0.27-0.96-0.71-1.81-1.34-2.57
				c-0.63-0.75-1.36-1.33-2.21-1.74s-1.72-0.61-2.62-0.61c-1.25,0-2.35,0.3-3.29,0.91s-1.68,1.45-2.2,2.54
				c-0.52,1.09-0.78,2.36-0.78,3.81v8.43c0,1.44,0.26,2.7,0.78,3.8c0.52,1.1,1.25,1.95,2.2,2.54s2.04,0.9,3.29,0.9
				c0.92,0,1.79-0.19,2.63-0.57c0.84-0.38,1.57-0.94,2.2-1.69c0.63-0.75,1.07-1.63,1.34-2.66h4.41c-0.35,1.82-1.03,3.42-2.03,4.79
				c-1,1.38-2.24,2.45-3.72,3.2c-1.48,0.75-3.09,1.13-4.84,1.13C381.78,689.65,379.91,689.18,378.3,688.24z"/>
			<path class="st6" d="M407.96,688.25c-1.63-0.94-2.9-2.26-3.79-3.97c-0.89-1.71-1.34-3.69-1.34-5.95v-8.7
				c0-2.25,0.45-4.23,1.34-5.95c0.89-1.71,2.16-3.03,3.79-3.97c1.63-0.94,3.52-1.4,5.66-1.4c2.14,0,4.03,0.47,5.66,1.4
				c1.63,0.94,2.9,2.26,3.79,3.97c0.89,1.71,1.34,3.69,1.34,5.95v8.7c0,2.25-0.45,4.23-1.34,5.95c-0.89,1.71-2.16,3.03-3.79,3.97
				c-1.63,0.94-3.52,1.4-5.66,1.4C411.48,689.65,409.6,689.19,407.96,688.25z M416.97,684.55c0.96-0.57,1.71-1.38,2.24-2.43
				c0.53-1.05,0.79-2.26,0.79-3.64v-9c0-1.38-0.26-2.59-0.79-3.64c-0.53-1.05-1.27-1.86-2.24-2.43c-0.96-0.57-2.08-0.86-3.35-0.86
				c-1.27,0-2.38,0.29-3.35,0.86c-0.96,0.57-1.71,1.38-2.24,2.43c-0.53,1.05-0.79,2.26-0.79,3.64v9c0,1.38,0.26,2.59,0.79,3.64
				c0.53,1.05,1.27,1.86,2.24,2.43c0.96,0.57,2.08,0.86,3.35,0.86C414.89,685.41,416.01,685.12,416.97,684.55z"/>
			<path class="st6" d="M434.24,658.63h3.91l15.02,23.74l-0.51,0.55v-24.29h4.27v30.69h-3.95L438,665.94l0.51-0.55v23.93h-4.27
				V658.63z"/>
			<path class="st6" d="M472.41,689.23c-1.32-0.28-2.56-0.7-3.71-1.27c-1.15-0.56-2.22-1.27-3.22-2.11l2.68-3.29
				c1.17,1.01,2.46,1.77,3.87,2.28s2.94,0.76,4.58,0.76c2.22,0,3.95-0.41,5.17-1.24c1.22-0.82,1.84-1.99,1.84-3.5v-0.02
				c0-1.07-0.28-1.92-0.83-2.55c-0.56-0.63-1.27-1.09-2.15-1.39s-2.02-0.58-3.41-0.83c-0.04-0.01-0.09-0.02-0.14-0.02
				c-0.05,0-0.1-0.01-0.14-0.02l-0.32-0.06c-2.06-0.35-3.73-0.75-5.02-1.19c-1.29-0.44-2.39-1.25-3.3-2.43
				c-0.92-1.17-1.37-2.85-1.37-5.02v-0.02c0-1.9,0.43-3.52,1.28-4.87s2.09-2.37,3.73-3.07c1.63-0.7,3.6-1.06,5.89-1.06
				c1.1,0,2.18,0.12,3.24,0.36c1.06,0.24,2.11,0.59,3.15,1.07s2.05,1.07,3.05,1.78l-2.45,3.42c-1.17-0.86-2.33-1.5-3.5-1.93
				c-1.16-0.43-2.33-0.64-3.5-0.64c-2.1,0-3.73,0.42-4.89,1.26c-1.16,0.84-1.74,2.02-1.74,3.56v0.02c0,1.06,0.3,1.89,0.9,2.49
				c0.6,0.61,1.34,1.05,2.24,1.34c0.89,0.29,2.14,0.59,3.73,0.9c0.06,0.01,0.11,0.02,0.16,0.03c0.05,0.01,0.1,0.02,0.16,0.03
				c0.07,0.01,0.15,0.03,0.23,0.04c0.08,0.01,0.16,0.03,0.23,0.04c1.86,0.38,3.41,0.83,4.66,1.35c1.25,0.52,2.29,1.36,3.13,2.52
				c0.84,1.16,1.26,2.75,1.26,4.76v0.04c0,1.87-0.44,3.47-1.33,4.8c-0.89,1.33-2.17,2.34-3.85,3.04c-1.68,0.7-3.71,1.04-6.09,1.04
				C475.13,689.65,473.73,689.51,472.41,689.23z"/>
			<path class="st6" d="M492.65,658.63h21.67v4.1h-21.67V658.63z M501.33,661.14h4.31v28.2h-4.31V661.14z"/>
			<path class="st6" d="M520.55,658.61h4.31v30.73h-4.31V658.61z M522.43,672.25h10.48c0.82,0,1.54-0.2,2.18-0.59
				c0.63-0.39,1.12-0.95,1.47-1.68c0.34-0.72,0.52-1.56,0.52-2.5c0-0.94-0.17-1.78-0.52-2.5c-0.35-0.72-0.83-1.28-1.46-1.68
				c-0.63-0.39-1.35-0.59-2.19-0.59h-10.48v-4.1h10.31c1.77,0,3.33,0.37,4.68,1.1c1.34,0.73,2.39,1.77,3.13,3.12s1.11,2.9,1.11,4.66
				c0,1.76-0.37,3.31-1.12,4.66c-0.75,1.34-1.79,2.38-3.14,3.12c-1.34,0.73-2.9,1.1-4.66,1.1h-10.31V672.25z M530.79,675.4
				l4.29-0.97l7.86,14.91h-5.11L530.79,675.4z"/>
			<path class="st6" d="M556.13,688.31c-1.61-0.89-2.84-2.2-3.69-3.91s-1.27-3.77-1.27-6.18v-19.6h4.31v19.75
				c0,2.24,0.56,3.97,1.69,5.2c1.13,1.23,2.72,1.84,4.77,1.84c2.07,0,3.67-0.61,4.81-1.84c1.13-1.22,1.7-2.96,1.7-5.2v-19.75h4.31
				v19.6c0,2.41-0.42,4.47-1.27,6.18s-2.08,3.01-3.7,3.91s-3.57,1.34-5.85,1.34C559.68,689.65,557.74,689.21,556.13,688.31z"/>
			<path class="st6" d="M587.25,688.24c-1.61-0.94-2.86-2.28-3.75-4.01c-0.89-1.73-1.33-3.74-1.33-6.02v-8.43
				c0-2.28,0.44-4.29,1.33-6.02c0.89-1.73,2.14-3.07,3.75-4.02c1.61-0.95,3.48-1.43,5.61-1.43c1.76,0,3.38,0.38,4.86,1.13
				c1.48,0.75,2.71,1.82,3.71,3.2c0.99,1.38,1.66,2.98,2.02,4.79h-4.41c-0.27-0.96-0.71-1.81-1.34-2.57
				c-0.63-0.75-1.36-1.33-2.21-1.74s-1.72-0.61-2.62-0.61c-1.25,0-2.35,0.3-3.29,0.91s-1.68,1.45-2.2,2.54
				c-0.52,1.09-0.78,2.36-0.78,3.81v8.43c0,1.44,0.26,2.7,0.78,3.8c0.52,1.1,1.25,1.95,2.2,2.54s2.04,0.9,3.29,0.9
				c0.92,0,1.79-0.19,2.63-0.57c0.84-0.38,1.57-0.94,2.2-1.69c0.63-0.75,1.07-1.63,1.34-2.66h4.41c-0.35,1.82-1.03,3.42-2.03,4.79
				c-1,1.38-2.24,2.45-3.72,3.2c-1.48,0.75-3.09,1.13-4.84,1.13C590.73,689.65,588.86,689.18,587.25,688.24z"/>
			<path class="st6" d="M616.86,688.24c-1.61-0.94-2.86-2.28-3.75-4.01c-0.89-1.73-1.33-3.74-1.33-6.02v-8.43
				c0-2.28,0.44-4.29,1.33-6.02c0.89-1.73,2.14-3.07,3.75-4.02c1.61-0.95,3.48-1.43,5.61-1.43c1.76,0,3.38,0.38,4.86,1.13
				c1.48,0.75,2.71,1.82,3.71,3.2c0.99,1.38,1.66,2.98,2.02,4.79h-4.41c-0.27-0.96-0.71-1.81-1.34-2.57
				c-0.63-0.75-1.36-1.33-2.21-1.74s-1.72-0.61-2.62-0.61c-1.25,0-2.35,0.3-3.29,0.91s-1.68,1.45-2.2,2.54
				c-0.52,1.09-0.78,2.36-0.78,3.81v8.43c0,1.44,0.26,2.7,0.78,3.8c0.52,1.1,1.25,1.95,2.2,2.54s2.04,0.9,3.29,0.9
				c0.92,0,1.79-0.19,2.63-0.57c0.84-0.38,1.57-0.94,2.2-1.69c0.63-0.75,1.07-1.63,1.34-2.66h4.41c-0.35,1.82-1.03,3.42-2.03,4.79
				c-1,1.38-2.24,2.45-3.72,3.2c-1.48,0.75-3.09,1.13-4.84,1.13C620.34,689.65,618.47,689.18,616.86,688.24z"/>
			<path class="st6" d="M646.34,689.34h-4.31v-30.71h4.31V689.34z"/>
			<path class="st6" d="M661.3,688.25c-1.63-0.94-2.9-2.26-3.79-3.97c-0.89-1.71-1.34-3.69-1.34-5.95v-8.7
				c0-2.25,0.45-4.23,1.34-5.95c0.89-1.71,2.16-3.03,3.79-3.97c1.63-0.94,3.52-1.4,5.66-1.4c2.14,0,4.03,0.47,5.66,1.4
				c1.63,0.94,2.9,2.26,3.79,3.97c0.89,1.71,1.34,3.69,1.34,5.95v8.7c0,2.25-0.45,4.23-1.34,5.95c-0.89,1.71-2.16,3.03-3.79,3.97
				c-1.63,0.94-3.52,1.4-5.66,1.4C664.82,689.65,662.93,689.19,661.3,688.25z M670.3,684.55c0.96-0.57,1.71-1.38,2.24-2.43
				c0.53-1.05,0.79-2.26,0.79-3.64v-9c0-1.38-0.26-2.59-0.79-3.64c-0.53-1.05-1.27-1.86-2.24-2.43c-0.96-0.57-2.08-0.86-3.35-0.86
				c-1.27,0-2.38,0.29-3.35,0.86c-0.96,0.57-1.71,1.38-2.24,2.43c-0.53,1.05-0.79,2.26-0.79,3.64v9c0,1.38,0.26,2.59,0.79,3.64
				c0.53,1.05,1.27,1.86,2.24,2.43c0.96,0.57,2.08,0.86,3.35,0.86C668.22,685.41,669.34,685.12,670.3,684.55z M664.97,654.02
				l5.83-5.17l2.79,2.89l-6.23,4.77L664.97,654.02z"/>
			<path class="st6" d="M687.57,658.63h3.91l15.02,23.74l-0.51,0.55v-24.29h4.27v30.69h-3.95l-14.97-23.38l0.51-0.55v23.93h-4.27
				V658.63z"/>
		</g>
	</g>
</g>
<g>
	<g>
		<path d="M451.94,540.46c-17.46,23.18-35.02,46.27-56.29,66.23c-8.47,7.95-17.48,15.16-27.81,20.45
			c-7.4,3.79-15.55,7.35-23.04,0.66c-7.7-6.88-5.58-15.8-2.56-23.93c7.06-19.03,18.38-35.67,30.48-51.79
			c2.75-3.67,5.47-7.37,8.2-11.05c0.73-0.8,1.45-1.59,2.18-2.39c27.89-30.48,56.88-59.79,89.7-85.08c1.54-1.19,3.06-2.64,4.02-4.3
			c14.4-24.83-4.42-67.47-32.39-73.56c-15.85-3.45-31.54-1.46-47.18,1.35c-49.58,8.89-95.85,28.25-142.81,45.4
			c-20.1,7.34-40.01,15.17-61.02,19.76c-8.9,1.94-17.76,1.26-26.63,1.03c-6.1-0.16-13.31-10.02-13.97-17.89
			c-1.05-12.49,4.4-23.18,9.84-33.68c18.11-34.97,43.7-64.39,70.69-92.51c64.27-66.97,137.78-121.9,219.55-165.74
			c12.95-6.95,25.98-14.11,40.61-17.01c20.36-4.03,30.48,0.52,41.18,18.25c2.71,4.48,4.83,9.36,6.78,14.23
			c1.13,2.83,4.11,6.6,0.49,8.93c-4.25,2.73-6.29-2.22-8.51-4.56c-3.15-3.33-5.61-7.32-8.32-11.06
			c-9.67-13.36-16.35-15.73-32.23-10.5c-20.83,6.85-39.53,18-57.96,29.59c-98.98,62.22-182.79,140.81-252.4,234.63
			c-4.1,5.52-7.59,11.61-10.62,17.79c-6.56,13.41-3.82,17.29,11.32,15.7c14.49-1.53,28.28-6.17,41.94-11.01
			c38.76-13.73,76.3-30.72,115.62-42.95c28.09-8.74,56.46-15.87,86.22-15.33c43.58,0.78,66.2,23.29,67.03,66.97
			c0.05,2.57,0.01,5.15,0.01,9.21c14.95-10.36,28.7-20.22,42.81-29.56c11.52-7.63,23.14-15.27,36.4-19.7
			c2.74-0.92,6.56-4.4,8.59-0.05c1.73,3.69-2.46,5.64-5.07,7.38c-15.63,10.42-31.36,20.7-47.05,31.03
			c-1.38,0.91-2.71,1.89-4.11,2.76c-20.94,13.19-38.34,28.14-43.81,54.85c-4.15,20.27-17.92,37.17-28.08,55.23
			C453.14,538.95,452.54,539.71,451.94,540.46z M401.05,538.18c-0.7,0.79-1.4,1.58-2.1,2.37c-19.96,22.65-39.24,45.7-45.45,76.69
			c34.92-16.66,56.11-47.02,78.51-76.15c0.44-0.76,0.89-1.53,1.33-2.29c14.86-19.21,27.15-39.81,34.37-63.37
			C442.83,493.8,421.04,515.04,401.05,538.18z"/>
		<path d="M598.06,365.81c-10.54,11.65-14.58,25.47-16.81,39.67c-4.34,27.59,2.74,34.74,29.81,27.74
			c28.25-7.31,55.33-18.07,78.13-37.35c3.62-3.06,7.78-5.54,11.91-7.92c3.36-1.94,7.73-4.42,10.35,0.07
			c2.16,3.71-0.23,7.29-3.58,10.25c-15.61,13.83-32.69,25.5-51.4,34.65c-15.69,7.67-31.63,14.94-49.08,17.66
			c-13.41,2.09-26.63,2.13-36.42-9.59c-7.9-9.46-7.45-20.65-5.89-31.98c2.37-17.27,8.31-33.2,18.28-47.49
			c4.53-6.49,10.37-12.09,19.03-8.98c8.15,2.93,8.87,10.51,8.88,18.15c0.01,6.71-1.26,13.11-3.33,19.39
			c-0.7,2.11-1.51,4.82-4.49,4.46c-3.13-0.38-2.73-3.19-2.94-5.43C599.82,381.68,602,373.98,598.06,365.81z"/>
	</g>
</g>
</svg>
